# xmcd
#
# Track frame offsets: 
#        183
#        16943
#        39848
#        57960
#        74125
#        88230
#        111115
#        139240
#        162693
#        179955
#
# Disc length: 2870 seconds
#
# Revision: 2
# Processed by: cddbd v1.4PL0 Copyright (c) Steve Scherf et al.
# Submitted via: ExactAudioCopy v0.90b4
#
DISCID=970b340a
DTITLE=Popa Chubby Band - It's Chubby Time
DYEAR=1992
DGENRE=Blues
TTITLE0=Money
TTITLE1=Stoop Down Baby
TTITLE2=Sweet Goddess Of Love And Beer
TTITLE3=Feel My Eyes On You
TTITLE4=Let The Jam Begin
TTITLE5=It's Chubby Time
TTITLE6=Lipservice
TTITLE7=Handyman
TTITLE8=I Love Your Shoes
TTITLE9=I Can't Stand It Baby
EXTD=
EXTT0=
EXTT1=
EXTT2=
EXTT3=
EXTT4=
EXTT5=
EXTT6=
EXTT7=
EXTT8=
EXTT9=
PLAYORDER=
